<svg xmlns="http://www.w3.org/2000/svg" viewBox="0 0 200 56" fill="none">
  <defs>
    <linearGradient id="mark" x1="0" y1="0" x2="40" y2="40" gradientUnits="userSpaceOnUse">
      <stop offset="0" stop-color="#5d8a3f"/>
      <stop offset="1" stop-color="#314b20"/>
    </linearGradient>
  </defs>
  <rect x="0" y="8" width="40" height="40" rx="10" fill="url(#mark)"/>
  <path
    d="M20 14c-.6 0-1 .2-1.3.7l-1 1.5c-.6.8-1.5 1.4-2.5 1.6l-1.7.2c-.9.1-1.5.9-1.5 1.8v.3c0 .9.6 1.7 1.5 1.8l1.7.2c1 .2 1.9.7 2.5 1.6l1 1.5c.3.4.7.7 1.3.7s1-.2 1.3-.7l1-1.5c.6-.8 1.5-1.4 2.5-1.6l1.7-.2c.9-.1 1.5-.9 1.5-1.8v-.3c0-.9-.6-1.7-1.5-1.8l-1.7-.2c-1-.2-1.9-.7-2.5-1.6l-1-1.5c-.3-.4-.7-.7-1.3-.7Z"
    fill="#fdf8ec"
  />
  <path
    d="M20 30v9m0 0-2.5-2M20 39l2.5-2"
    stroke="#fdf8ec"
    stroke-width="1.4"
    stroke-linecap="round"
    stroke-linejoin="round"
  />
  <text
    x="52"
    y="32"
    font-family="Georgia, 'Playfair Display', serif"
    font-size="22"
    font-weight="600"
    fill="#314b20"
  >
    Djamojo
  </text>
  <text
    x="52"
    y="46"
    font-family="Inter, system-ui, sans-serif"
    font-size="7"
    font-weight="500"
    letter-spacing="2.5"
    fill="#9c6f44"
  >
    BY DJAMOE SPIRIT
  </text>
</svg>
