<svg xmlns="http://www.w3.org/2000/svg" viewBox="0 0 64 64" fill="none">
  <defs>
    <linearGradient id="mark-only" x1="0" y1="0" x2="64" y2="64" gradientUnits="userSpaceOnUse">
      <stop offset="0" stop-color="#5d8a3f"/>
      <stop offset="1" stop-color="#314b20"/>
    </linearGradient>
  </defs>
  <rect width="64" height="64" rx="16" fill="url(#mark-only)"/>
  <path
    d="M32 14c-1 0-1.7.4-2.2 1.1l-1.6 2.4c-1 1.4-2.5 2.4-4.2 2.6l-2.8.4c-1.5.2-2.6 1.5-2.6 3v.5c0 1.5 1.1 2.8 2.6 3l2.8.4c1.7.2 3.2 1.2 4.2 2.6l1.6 2.4c.5.7 1.2 1.1 2.2 1.1s1.7-.4 2.2-1.1l1.6-2.4c1-1.4 2.5-2.4 4.2-2.6l2.8-.4c1.5-.2 2.6-1.5 2.6-3v-.5c0-1.5-1.1-2.8-2.6-3l-2.8-.4c-1.7-.2-3.2-1.2-4.2-2.6L34.2 15.1c-.5-.7-1.2-1.1-2.2-1.1Z"
    fill="#fdf8ec"
  />
  <path
    d="M32 36v12m0 0-4-3m4 3 4-3"
    stroke="#fdf8ec"
    stroke-width="2"
    stroke-linecap="round"
    stroke-linejoin="round"
  />
</svg>
