<svg xmlns="http://www.w3.org/2000/svg" viewBox="0 0 1200 630" fill="none" role="img" aria-label="Open Graph image Djamojo by Djamoe Spirit">
  <defs>
    <linearGradient id="ogBg" x1="0" y1="0" x2="1200" y2="630" gradientUnits="userSpaceOnUse">
      <stop offset="0" stop-color="#3a4320"/>
      <stop offset="0.5" stop-color="#4f5a1f"/>
      <stop offset="1" stop-color="#626f27"/>
    </linearGradient>
    <linearGradient id="ogBottle" x1="0" y1="0" x2="0" y2="1">
      <stop offset="0" stop-color="#fdf5a2" stop-opacity="0.95"/>
      <stop offset="1" stop-color="#b3a495" stop-opacity="0.85"/>
    </linearGradient>
    <linearGradient id="ogJamu" x1="0" y1="0" x2="0" y2="1">
      <stop offset="0" stop-color="#fede1a"/>
      <stop offset="1" stop-color="#ad7841"/>
    </linearGradient>
    <radialGradient id="ogGlow" cx="0.5" cy="0.5" r="0.5">
      <stop offset="0" stop-color="#fede1a" stop-opacity="0.3"/>
      <stop offset="1" stop-color="#fede1a" stop-opacity="0"/>
    </radialGradient>
  </defs>

  <rect width="1200" height="630" fill="url(#ogBg)"/>

  <ellipse cx="900" cy="315" rx="400" ry="350" fill="url(#ogGlow)"/>

  <g opacity="0.12" stroke="#fdf5a2" fill="none">
    <circle cx="900" cy="315" r="220" stroke-width="1" stroke-dasharray="4 6"/>
    <circle cx="900" cy="315" r="170" stroke-width="1" stroke-dasharray="4 6"/>
    <circle cx="900" cy="315" r="120" stroke-width="1" stroke-dasharray="4 6"/>
  </g>

  <g>
    <text x="60" y="100" font-family="Inter, sans-serif" font-size="14" letter-spacing="4" fill="#fede1a">PIONIR JAMU SIRKULAR · BANDUNG</text>
    <text x="60" y="190" font-family="Georgia, serif" font-size="76" font-weight="700" fill="#fdf5a2">Jamu Autentik,</text>
    <text x="60" y="270" font-family="Georgia, serif" font-size="76" font-weight="700" fill="#fede1a">Bumi Lestari.</text>
    <line x1="60" y1="310" x2="180" y2="310" stroke="#fede1a" stroke-width="2"/>
    <text x="60" y="350" font-family="Inter, sans-serif" font-size="18" fill="#fdf5a2">Jamu tradisional homemade dalam botol kaca.</text>
    <text x="60" y="378" font-family="Inter, sans-serif" font-size="18" fill="#fdf5a2">Program Return Bottle bersertifikat food-grade.</text>
    <text x="60" y="406" font-family="Inter, sans-serif" font-size="18" fill="#fdf5a2">−90% emisi per siklus.</text>

    <g transform="translate(60,460)">
      <rect width="170" height="40" rx="20" fill="#fede1a"/>
      <text x="85" y="26" text-anchor="middle" font-family="Inter, sans-serif" font-size="14" font-weight="600" letter-spacing="1.5" fill="#3a4320">#KembaliBerseri</text>
    </g>
  </g>

  <g transform="translate(820,150)">
    <rect x="40" y="0" width="80" height="40" rx="8" fill="#ad7841"/>
    <path d="M48 40 L48 90 Q48 96 54 100 L106 100 Q112 96 112 90 L112 40 Z" fill="url(#ogBottle)" stroke="#fdf5a2" stroke-width="1.5"/>
    <path d="M42 100 Q22 130 14 180 L14 320 Q14 340 38 340 L122 340 Q146 340 146 320 L146 180 Q138 130 118 100 Z" fill="url(#ogBottle)" stroke="#fdf5a2" stroke-width="1.5"/>
    <path d="M28 160 Q22 240 24 320" stroke="#fdf5a2" stroke-width="3" opacity="0.6" fill="none" stroke-linecap="round"/>
    <path d="M18 230 L18 320 Q18 338 38 338 L122 338 Q142 338 142 320 L142 230 Z" fill="url(#ogJamu)"/>
    <ellipse cx="80" cy="230" rx="62" ry="6" fill="#fede1a"/>
    <ellipse cx="80" cy="230" rx="62" ry="3" fill="#fdf5a2" opacity="0.4"/>
    <rect x="32" y="260" width="96" height="65" rx="3" fill="#fdf5a2"/>
    <text x="80" y="280" text-anchor="middle" font-family="Georgia, serif" font-size="14" font-weight="700" fill="#3a4320">DJAMOJO</text>
    <text x="80" y="292" text-anchor="middle" font-family="Inter, sans-serif" font-size="6" letter-spacing="1.5" fill="#746555">DJAMOE SPIRIT</text>
    <line x1="50" y1="298" x2="110" y2="298" stroke="#fede1a" stroke-width="0.6"/>
    <text x="80" y="312" text-anchor="middle" font-family="Inter, sans-serif" font-size="8" fill="#3a4320">250ml · Bandung</text>
  </g>

  <g>
    <text x="1140" y="595" text-anchor="end" font-family="Inter, sans-serif" font-size="13" letter-spacing="2" fill="#fede1a">DJAMOJO.ID</text>
    <text x="1140" y="615" text-anchor="end" font-family="Inter, sans-serif" font-size="10" letter-spacing="1.5" fill="#fdf5a2">SEJAK 2012</text>
  </g>
</svg>
